PathFileType	4	(X/Y/Z)	/Users/itak/Documents/Research/Walk-IL/dataset/trc/00132_00007.trc
DataRate	CameraRate	NumFrames	NumMarkers	Units	OrigDataRate	OrigDataStartFrame	OrigNumFrames
100.000000	100.000000	4	53	mm	100.000000	653	747
Frame#	Time	RPSI			LPSI			L3			STRN			T10			C7			CLAV			RBAK			LBAK			LSHO			LUPA			LAEL			LAOL			LWTS			LWPS			LFRA			LIFD			LHPS			LHTS			RSHO			RUPA			RAEL			RAOL			RWTS			RWPS			RFRA			RIFD			RHTS			RHPS			RBHD			LFHD			RFHD			LBHD			LHIP			RHIP			RASI			LASI			LKNE			LTHI			LANK			LTIP			LTOE			LMT1			LMT5			LHEE			RKNE			RTHI			RANK			RTIP			RTOE			RMT1			RMT5			RHEE			
		X1	Y1	Z1	X2	Y2	Z2	X3	Y3	Z3	X4	Y4	Z4	X5	Y5	Z5	X6	Y6	Z6	X7	Y7	Z7	X8	Y8	Z8	X9	Y9	Z9	X10	Y10	Z10	X11	Y11	Z11	X12	Y12	Z12	X13	Y13	Z13	X14	Y14	Z14	X15	Y15	Z15	X16	Y16	Z16	X17	Y17	Z17	X18	Y18	Z18	X19	Y19	Z19	X20	Y20	Z20	X21	Y21	Z21	X22	Y22	Z22	X23	Y23	Z23	X24	Y24	Z24	X25	Y25	Z25	X26	Y26	Z26	X27	Y27	Z27	X28	Y28	Z28	X29	Y29	Z29	X30	Y30	Z30	X31	Y31	Z31	X32	Y32	Z32	X33	Y33	Z33	X34	Y34	Z34	X35	Y35	Z35	X36	Y36	Z36	X37	Y37	Z37	X38	Y38	Z38	X39	Y39	Z39	X40	Y40	Z40	X41	Y41	Z41	X42	Y42	Z42	X43	Y43	Z43	X44	Y44	Z44	X45	Y45	Z45	X46	Y46	Z46	X47	Y47	Z47	X48	Y48	Z48	X49	Y49	Z49	X50	Y50	Z50	X51	Y51	Z51	X52	Y52	Z52	X53	Y53	Z53	

654	6.53	711.6592407226562	1112.694458007812	836.95263671875	766.3739624023438	1125.918579101562	960.447021484375	747.970703125	1155.8642578125	897.30517578125	553.9705200195312	1365.729248046875	979.955078125	788.7410888671875	1306.2421875	880.2672729492188	772.045166015625	1599.968994140625	901.5405883789062	596.6572875976562	1497.90087890625	966.1417846679688	782.3534545898438	1412.911254882812	804.2006225585938	817.3394775390625	1580.400268554688	993.142822265625	762.2296752929688	1571.080322265625	1088.013671875	799.9005126953125	1444.0068359375	1156.043090820312	776.0125122070312	1234.135009765625	1214.131103515625	810.5406494140625	1203.01806640625	1138.662353515625	613.6802978515625	1014.417419433594	1264.024780273438	689.9968872070312	967.3377075195312	1259.799438476562	741.9099731445312	1128.06298828125	1246.28076171875	546.145751953125	833.9750366210938	1284.053100585938	646.8040771484375	905.2406616210938	1286.815185546875	584.4615478515625	935.1690063476562	1298.30859375	650.5424194335938	1580.903564453125	756.5399780273438	642.3099975585938	1507.082397460938	691.989501953125	648.544921875	1213.041870117188	670.0218505859375	686.3853759765625	1212.779663085938	758.994873046875	508.0455322265625	976.1175537109375	734.79541015625	568.4462280273438	955.3262329101562	681.5763549804688	618.737548828125	1139.970703125	664.5236206054688	485.3936462402344	783.548095703125	766.1177368164062	474.2236022949219	868.6306762695312	742.0127563476562	528.0726318359375	857.454833984375	692.1539306640625	682.4793090820312	1781.853515625	848.7728271484375	579.78369140625	1826.039916992188	1041.209106445312	524.3485107421875	1823.59521484375	922.7711181640625	743.7640991210938	1788.47119140625	968.11083984375	723.7451171875	1047.744995117188	1101.971801757812	542.6279296875	1019.275390625	790.363525390625	496.4026794433594	1102.43408203125	865.5685424804688	609.0975341796875	1112.51416015625	1105.9853515625	679.9978637695312	546.901123046875	1091.958862304688	712.251953125	690.7589111328125	1104.048950195312	731.8709716796875	38.57039260864258	1033.373291015625	756.35302734375	294.0942687988281	1070.43310546875	494.2804870605469	36.00893783569336	1070.07421875	557.796630859375	44.39494705200195	1008.264526367188	627.753173828125	37.22007369995117	1106.280395507812	771.3277587890625	40.87699127197266	950.298583984375	457.2590026855469	540.5743408203125	893.7354736328125	490.2254333496094	815.7772216796875	837.1354370117188	703.2142333984375	89.34647369384766	771.2874755859375	511.7322387695312	415.9292907714844	852.9384765625	521.10302734375	54.97972869873047	911.6437377929688	593.6080932617188	48.75206756591797	924.436279296875	576.2969360351562	66.95954132080078	807.065673828125	774.17041015625	101.5379104614258	791.1492919921875	
655	6.54	709.472412109375	1112.962158203125	838.8049926757812	764.6784057617188	1125.796142578125	962.1103515625	746.0849609375	1155.848510742188	899.0919189453125	552.85986328125	1365.910034179688	982.2421264648438	787.4459838867188	1306.177978515625	882.0704345703125	771.0311279296875	1599.869995117188	903.6329956054688	595.609375	1498.017700195312	968.2838745117188	781.1600341796875	1412.781494140625	806.299560546875	816.3843383789062	1580.313720703125	995.250244140625	761.2761840820312	1571.061889648438	1090.138793945312	798.5196533203125	1443.840209960938	1158.102294921875	773.5121459960938	1233.900390625	1215.9169921875	808.1453247070312	1202.776489257812	1140.517700195312	609.96337890625	1014.887817382812	1264.784301757812	686.0528564453125	967.4100952148438	1260.788208007812	738.8971557617188	1128.06640625	1247.851196289062	541.446044921875	834.6935424804688	1284.169921875	642.4185180664062	905.4722900390625	1287.499755859375	580.1143188476562	935.6808471679688	1298.713500976562	649.515380859375	1580.858032226562	758.6520385742188	641.2348022460938	1507.024780273438	694.1388549804688	647.4913940429688	1212.991821289062	672.3387451171875	685.1387329101562	1212.776977539062	761.373291015625	507.339111328125	975.8802490234375	736.9669189453125	567.7655029296875	955.171630859375	683.7618408203125	617.7444458007812	1139.897216796875	666.8133544921875	484.9563293457031	783.2239990234375	768.1963500976562	473.70947265625	868.2863159179688	744.158203125	527.5181884765625	857.213623046875	694.3009033203125	681.55126953125	1781.893310546875	850.8706665039062	578.3883666992188	1825.843627929688	1043.087280273438	523.254638671875	1823.427490234375	924.5758666992188	742.5748291015625	1788.511474609375	970.3334350585938	722.3804931640625	1047.531372070312	1103.652221679688	540.3002319335938	1019.762573242188	792.7218627929688	494.4212341308594	1102.896362304688	868.0546264648438	607.9691162109375	1112.401977539062	1108.119873046875	678.9877319335938	546.7715454101562	1092.822875976562	711.0440673828125	690.6702880859375	1105.14892578125	731.8430786132812	38.62378311157227	1033.302124023438	756.0144653320312	294.1929321289062	1070.799438476562	494.2590026855469	35.99182510375977	1070.111694335938	557.7679443359375	44.49125671386719	1008.2783203125	627.7562255859375	37.20362091064453	1106.278930664062	771.3110961914062	41.03420257568359	950.2105102539062	458.5357360839844	539.9755249023438	895.13623046875	489.108642578125	815.7297973632812	839.1123657226562	694.6202392578125	81.80772399902344	779.7490844726562	510.9157409667969	413.8804321289062	855.7364501953125	511.2531127929688	56.67134857177734	920.7880859375	583.5106811523438	48.33976364135742	933.808837890625	567.0596313476562	64.50390625	816.0548095703125	766.0010375976562	92.10633087158203	799.3137817382812	
656	6.55	707.33740234375	1113.1806640625	840.53857421875	762.989990234375	1125.649780273438	963.66162109375	744.2105102539062	1155.7978515625	900.7637329101562	551.8154296875	1366.044921875	984.4356689453125	786.1642456054688	1306.06591796875	883.7421264648438	770.0568237304688	1599.722045898438	905.594482421875	594.6206665039062	1498.088989257812	970.3466796875	779.969970703125	1412.611938476562	808.2532958984375	815.4837646484375	1580.168090820312	997.21875	760.4024047851562	1570.977783203125	1092.140869140625	797.2357788085938	1443.61083984375	1160.025512695312	771.1636962890625	1233.592041015625	1217.535034179688	805.904296875	1202.48779296875	1142.19921875	606.5052490234375	1015.212768554688	1265.334228515625	682.3707885742188	967.370361328125	1261.550659179688	736.0503540039062	1127.919921875	1249.19384765625	537.0809936523438	835.2335205078125	1284.019653320312	638.3258666992188	905.5667724609375	1287.935180664062	576.0724487304688	936.0263061523438	1298.889404296875	648.4817504882812	1580.782958984375	760.6767578125	640.1221313476562	1506.944580078125	696.1956176757812	646.3514404296875	1212.913696289062	674.542236328125	683.8265380859375	1212.745849609375	763.6140747070312	506.593505859375	975.6006469726562	739.124267578125	566.9921875	954.9857177734375	685.8800048828125	616.6649169921875	1139.796752929688	669.0066528320312	484.5257263183594	782.8538208007812	770.2798461914062	473.1798400878906	867.9093627929688	746.31884765625	526.899169921875	856.9464721679688	696.4080810546875	680.6958618164062	1781.869995117188	852.8631591796875	577.0891723632812	1825.632690429688	1044.854370117188	522.2435302734375	1823.242553710938	926.2804565429688	741.4688110351562	1788.49072265625	972.4480590820312	721.0650634765625	1047.301879882812	1105.22607421875	537.9927368164062	1020.169616699219	794.9987182617188	492.4701843261719	1103.3056640625	870.4548950195312	606.8309936523438	1112.28759765625	1110.164184570312	678.00439453125	546.6249389648438	1093.65185546875	709.8599853515625	690.5731201171875	1106.197509765625	731.8281860351562	38.66130447387695	1033.23828125	755.707763671875	294.2591552734375	1071.147094726562	494.2453002929688	35.9790153503418	1070.140991210938	557.7675170898438	44.61923980712891	1008.304504394531	627.7658081054688	37.18169784545898	1106.284790039062	771.2879638671875	41.13356018066406	950.1153564453125	459.9915466308594	539.3295288085938	896.5538940429688	488.0408020019531	815.6026611328125	841.0477294921875	686.47509765625	74.79944610595703	787.892333984375	510.2613830566406	411.8622436523438	858.51904296875	502.3876037597656	58.30873107910156	929.6199340820312	574.4318237304688	48.09324264526367	942.833251953125	558.515380859375	62.24093246459961	824.7422485351562	758.1897583007812	83.38679504394531	807.1047973632812	
657	6.56	705.2401123046875	1113.334838867188	842.169921875	761.31103515625	1125.47607421875	965.1143798828125	742.3641357421875	1155.702392578125	902.3285522460938	550.8294677734375	1366.132446289062	986.53662109375	784.8892822265625	1305.896850585938	885.2955932617188	769.1258544921875	1599.518432617188	907.430419921875	593.6875	1498.109008789062	972.3272705078125	778.7862548828125	1412.39111328125	810.0678100585938	814.6343383789062	1579.953491210938	999.0501708984375	759.60595703125	1570.818725585938	1094.022583007812	796.0485229492188	1443.304077148438	1161.810302734375	768.972900390625	1233.197509765625	1218.987548828125	803.8231811523438	1202.137573242188	1143.7119140625	603.3032836914062	1015.380187988281	1265.687377929688	678.9512939453125	967.2088623046875	1262.1064453125	733.3663940429688	1127.609741210938	1250.313232421875	533.0493774414062	835.5927734375	1283.62255859375	634.5233764648438	905.5159912109375	1288.143920898438	572.3331909179688	936.1973266601562	1298.853515625	647.4479370117188	1580.66845703125	762.6100463867188	638.980224609375	1506.828979492188	698.157470703125	645.1202392578125	1212.79345703125	676.6344604492188	682.4508056640625	1212.673706054688	765.717041015625	505.7901306152344	975.2599487304688	741.2691650390625	566.12890625	954.7601928710938	687.9310302734375	615.4951782226562	1139.656616210938	671.1068115234375	484.0947875976562	782.42626953125	772.3704833984375	472.6219482421875	867.485107421875	748.492919921875	526.210693359375	856.6402587890625	698.4771118164062	679.9129028320312	1781.779052734375	854.7568359375	575.8894653320312	1825.398803710938	1046.526123046875	521.30712890625	1823.034912109375	927.88671875	740.4453125	1788.406494140625	974.4583740234375	719.7826538085938	1047.056274414062	1106.706298828125	535.726806640625	1020.4736328125	797.1849975585938	490.5510559082031	1103.650390625	872.7601318359375	605.6708374023438	1112.168212890625	1112.121948242188	677.0465698242188	546.4561767578125	1094.448608398438	708.7017211914062	690.46142578125	1107.20068359375	731.8252563476562	38.68473434448242	1033.180297851562	755.4251098632812	294.2845458984375	1071.470825195312	494.2382507324219	35.97080612182617	1070.1630859375	557.7864379882812	44.76156997680664	1008.331604003906	627.78125	37.15806198120117	1106.294555664062	771.2620849609375	41.18200302124023	950.0172729492188	461.5880432128906	538.6456909179688	897.9890747070312	487.0216369628906	815.3887939453125	842.9357299804688	678.8292846679688	68.32732391357422	795.69970703125	509.7508850097656	409.8898010253906	861.2802124023438	494.4848937988281	59.77044677734375	938.126220703125	566.36962890625	47.9250373840332	951.5036010742188	550.6753540039062	60.13640975952148	833.108642578125	750.79931640625	75.39159393310547	814.5062255859375	
